<?xml version="1.0" encoding="utf-8"?>
<!-- Generator: Adobe Illustrator 21.0.2, SVG Export Plug-In . SVG Version: 6.00 Build 0)  -->
<svg version="1.1" id="Layer_1" xmlns="http://www.w3.org/2000/svg" xmlns:xlink="http://www.w3.org/1999/xlink" x="0px" y="0px"
	 viewBox="0 0 187 55" style="enable-background:new 0 0 187 55;" xml:space="preserve">
<style type="text/css">
	.st0{fill:url(#Fill-1_1_);}
	.st1{fill:url(#Fill-4_1_);}
	.st2{fill:url(#Fill-6_1_);}
	.st3{fill:url(#Fill-8_1_);}
	.st4{fill:url(#Fill-8-Copy_1_);}
	.st5{fill:#F67D31;}
</style>
<desc>Created with Sketch.</desc>
<g id="Symbols">
	<g id="login" transform="translate(-111.000000, 0.000000)">
		<g id="Group-7">
			<g id="Group" transform="translate(111.000000, 0.000000)">
				<g id="Group-3" transform="translate(75.706240, 0.168271)">
					
						<radialGradient id="Fill-1_1_" cx="-295.7954" cy="273.002" r="1.0473" gradientTransform="matrix(2.331178e-15 34.3317 38.071 -2.102213e-15 -10372.8369 10181.9092)" gradientUnits="userSpaceOnUse">
						<stop  offset="0" style="stop-color:#0162BC"/>
						<stop  offset="1" style="stop-color:#093380"/>
					</radialGradient>
					<path id="Fill-1" class="st0" d="M11.2,7.5c5.9-4.8,14.9-6.2,22.5-4.1c2.9,0.7,6.1,2.1,6.8,4.9c0.1,2.3-1,4.5-1.5,6.8
						c-3.6-2.9-8.9-3.9-13.7-3.2c-5.2,0.9-8.8,4.8-10.8,8.8c-2.2,4.8-3.2,10.2-1.2,15.2c1.1,2.7,3.5,4.9,6.6,5.8
						c5,1.3,10.3-0.3,14.1-3.3c-0.7,2.9-1.1,5.8-2,8.7c-0.9,2.4-4,3.2-6.5,3.6c-6.8,1.1-14.5-0.1-19.3-4.7
						c-4.7-4.4-5.8-10.7-5.5-16.5C1.1,21.4,4.2,13.1,11.2,7.5"/>
				</g>
				
					<radialGradient id="Fill-4_1_" cx="53.7572" cy="23.0661" r="24.077" gradientTransform="matrix(0.9659 0 0 0.8711 6.0439 2.0564)" gradientUnits="userSpaceOnUse">
					<stop  offset="0" style="stop-color:#0162BC"/>
					<stop  offset="1" style="stop-color:#1F4893"/>
				</radialGradient>
				<path id="Fill-4" class="st1" d="M49.6,30.4c-0.9,3.1-1.4,6.3-2.1,9.4c-0.3,1.3-1,2.8,0.1,4c3.6,0,7.5,0.2,10.6-1.6
					c3.8-1.9,5-7.1,1.9-9.9C57.3,30,53.2,30.5,49.6,30.4 M53.6,12.1c-0.7,3.3-1.5,6.5-2,9.8c-0.2,0.9,1.1,1.3,1.9,1.2
					c3.4,0.1,7.2-0.3,9.7-2.5c2.3-2.1,2.5-6.2-0.6-7.8C59.8,11.4,56.6,12,53.6,12.1 M44.2,5.2c5-0.8,10.1-1.3,15.2-1.1
					c4.7,0.2,9.7,1.1,13.1,4.1c4.1,3.4,4.2,9.5,0.9,13.4c-2,2.4-5,4.1-8.3,4.7c2.6,0.9,5.1,2.3,6.4,4.6c3,5.4,1.4,12.4-3.7,16.3
					c-4.1,3.3-9.7,4.4-15,4.7c-4,0.1-8.1,0-11.9-1.1c-2-0.5-3.6-2-4.3-3.7c-1-2.6-0.6-5.3,0-7.9C39.3,27.8,41.6,16.5,44.2,5.2"/>
				
					<radialGradient id="Fill-6_1_" cx="136.0117" cy="23.0661" r="25.2778" gradientTransform="matrix(0.9659 0 0 0.8711 6.0439 2.0564)" gradientUnits="userSpaceOnUse">
					<stop  offset="0" style="stop-color:#0162BC"/>
					<stop  offset="1" style="stop-color:#1F4893"/>
				</radialGradient>
				<path id="Fill-6" class="st2" d="M134.6,12.2c-1,4.5-2,9-2.9,13.5c-0.3,0.9,0.4,1.8,1.3,2.2c2.8,0.4,5.7,0,8.2-1.2
					c4.6-2.4,6.5-7.9,4.4-12.1C143.4,11.4,138.3,11.9,134.6,12.2 M124.3,5.2c3.5-1,7.3-1,11-1.2c5.1-0.1,10.5,0.1,15,2.4
					c3.5,1.7,5.5,5,6,8.4c1.2,7.5-3.1,15.5-10.8,19.1c-5.1,2.5-11.1,2.7-16.8,2.3c-0.9,3.7-1.6,7.4-2.5,11.1
					c-0.5,1.9-1.9,3.9-4.2,4.5c-2.6,0.2-5.3,0-7.9,0.1C117.6,36.3,120.8,20.7,124.3,5.2"/>
				
					<radialGradient id="Fill-8_1_" cx="-210.2458" cy="283.3396" r="1.0473" gradientTransform="matrix(8.292263e-16 12.2122 13.5423 -7.477811e-16 -3822.6355 2583.938)" gradientUnits="userSpaceOnUse">
					<stop  offset="0" style="stop-color:#0162BC"/>
					<stop  offset="1" style="stop-color:#093380"/>
				</radialGradient>
				<path id="Fill-8" class="st3" d="M14.3,8c1.7-0.8,3.9-0.4,5.2,0.9c2,2.7,2.1,6,2,9.1c-0.1,2.5-0.5,5-1.5,7.3
					c-3.4-3.9-7.7-7-12.6-9.2C8.6,12.8,10.8,9.6,14.3,8"/>
				
					<radialGradient id="Fill-8-Copy_1_" cx="-210.2458" cy="283.5554" r="1.0473" gradientTransform="matrix(8.292259e-16 12.2122 13.5423 -7.477811e-16 -3672.427 2583.938)" gradientUnits="userSpaceOnUse">
					<stop  offset="0" style="stop-color:#0162BC"/>
					<stop  offset="1" style="stop-color:#093380"/>
				</radialGradient>
				<path id="Fill-8-Copy" class="st4" d="M167.4,8c1.7-0.8,3.9-0.4,5.2,0.9c2,2.7,2.1,6,2,9.1c-0.1,2.5-0.5,5-1.5,7.3
					c-3.4-3.9-7.7-7-12.6-9.2C161.7,12.8,163.9,9.6,167.4,8"/>
				<path id="Fill-12" class="st5" d="M18.5,7.6c5,2.9,8.9,7,12.2,11.5c2.7,3.7,3,9,0.4,12.8c-3.2,5-7.9,8.9-12.8,12.5
					c-2.7,1.9-6,4.2-9.6,3.3c-3.4-0.8-5.5-3.6-7-6.4c7.2-4,14.3-9.3,17.2-16.9c1-2.4,1.4-5,1.5-7.5C20.5,13.7,20.4,10.3,18.5,7.6"/>
				<path id="Fill-12-Copy" class="st5" d="M171.6,7.6c5,2.9,8.9,7,12.2,11.5c2.7,3.7,3,9,0.4,12.8c-3.2,5-7.9,8.9-12.8,12.5
					c-2.7,1.9-6,4.2-9.6,3.3c-3.4-0.8-5.5-3.6-7-6.4c7.2-4,14.3-9.3,17.2-16.9c1-2.4,1.4-5,1.5-7.5C173.6,13.7,173.5,10.3,171.6,7.6
					"/>
			</g>
		</g>
	</g>
</g>
</svg>
